<svg id="Capa_1" data-name="Capa 1" xmlns="http://www.w3.org/2000/svg" viewBox="0 0 1920 2661.85"><defs><style>.cls-1{fill:none;stroke:#fff;stroke-miterlimit:10;}</style></defs><title>rejilla_Mesa de trabajo 1</title><line class="cls-1" x1="174.28" y1="-8" x2="174.28" y2="2673.85"/><line class="cls-1" x1="385.68" y1="-8" x2="385.68" y2="2673.85"/><line class="cls-1" x1="597.09" y1="-8" x2="597.09" y2="2673.85"/><line class="cls-1" x1="799.3" y1="-8" x2="799.3" y2="2673.85"/><line class="cls-1" x1="1004.57" y1="-8" x2="1004.57" y2="2710.49"/><line class="cls-1" x1="1215.98" y1="-8" x2="1215.98" y2="2663.85"/><line class="cls-1" x1="1415.13" y1="-8" x2="1415.13" y2="2679.17"/><line class="cls-1" x1="1595.89" y1="-8" x2="1595.89" y2="2663.85"/><line class="cls-1" x1="1758.28" y1="-8" x2="1758.28" y2="2679.17"/><line class="cls-1" x1="1935.61" y1="177.09" x2="-16.24" y2="177.09"/><line class="cls-1" x1="1935.61" y1="388.49" x2="-16.24" y2="388.49"/><line class="cls-1" x1="1935.61" y1="599.89" x2="-16.24" y2="599.89"/><line class="cls-1" x1="1935.61" y1="802.11" x2="-16.24" y2="802.11"/><line class="cls-1" x1="1935.61" y1="1007.38" x2="-52.88" y2="1007.38"/><line class="cls-1" x1="1935.61" y1="1218.79" x2="-6.24" y2="1218.79"/><line class="cls-1" x1="1935.61" y1="1417.94" x2="-21.56" y2="1417.94"/><line class="cls-1" x1="1935.61" y1="1598.7" x2="-6.24" y2="1598.7"/><line class="cls-1" x1="1935.61" y1="1761.09" x2="-21.56" y2="1761.09"/><line class="cls-1" x1="1926.54" y1="1960.23" x2="-15.31" y2="1960.23"/><line class="cls-1" x1="1926.54" y1="2171.64" x2="-15.31" y2="2171.64"/><line class="cls-1" x1="1926.54" y1="2383.04" x2="-15.31" y2="2383.04"/><line class="cls-1" x1="1926.54" y1="2585.26" x2="-15.31" y2="2585.26"/></svg>